<svg xmlns="http://www.w3.org/2000/svg" viewBox="0 0 275.14 87.64"><defs><style>.cls-1{fill:#b52025;}</style></defs><g id="Layer_2" data-name="Layer 2"><g id="Layer_2-2" data-name="Layer 2"><path class="cls-1" d="M63.41,71.53c0,2.34.06,4.1.18,5.27a10.68,10.68,0,0,0,.61,2.81,5.44,5.44,0,0,0,1,1.73A5.66,5.66,0,0,0,67,82.55a19.8,19.8,0,0,0,3.49,1.15v3H45.06v-3a13.23,13.23,0,0,0,4.66-1.88,5.37,5.37,0,0,0,1.85-3.15,34.26,34.26,0,0,0,.52-7.14V46.15H18.41V71.53a46.26,46.26,0,0,0,.27,5.93,8.62,8.62,0,0,0,.91,3,5.14,5.14,0,0,0,1.88,1.82,17.1,17.1,0,0,0,4,1.45v3H0v-3a12.34,12.34,0,0,0,5-2.15,5.89,5.89,0,0,0,1.66-3.36,41,41,0,0,0,.4-6.66V19.14a43.26,43.26,0,0,0-.31-6.09,7.53,7.53,0,0,0-1-3A5.16,5.16,0,0,0,3.94,8.39,20.37,20.37,0,0,0,0,7V4H25.5V7A16.58,16.58,0,0,0,21.65,8.3,5.63,5.63,0,0,0,19.77,10a7.72,7.72,0,0,0-1,3,41.65,41.65,0,0,0-.33,6.18V40.58H52.09V19.14a33.22,33.22,0,0,0-.52-7.21,5.73,5.73,0,0,0-1.72-3,13.71,13.71,0,0,0-4.79-2V4H70.44V7a13.38,13.38,0,0,0-4.73,1.91,5.44,5.44,0,0,0-1.81,3.18,35.32,35.32,0,0,0-.49,7.09Z"/><path class="cls-1" d="M109.16,78l-.91-.24a37.14,37.14,0,0,1-9.9,7.63,22.38,22.38,0,0,1-9.85,2.24,17.67,17.67,0,0,1-8.11-1.79,12.74,12.74,0,0,1-5.39-5,14.63,14.63,0,0,1-1.88-7.48q0-8.84,8.75-13.65t26.26-5.61V50.15a32.72,32.72,0,0,0-1.21-9.93,9.73,9.73,0,0,0-3.82-5.33,12.62,12.62,0,0,0-7-1.7,11.28,11.28,0,0,0-7.61,2.48,15.28,15.28,0,0,0-4.33,7.45H76.27V35.25A87.1,87.1,0,0,1,86,30.8a55.14,55.14,0,0,1,7.75-2.24,37.78,37.78,0,0,1,7.88-.82,20.84,20.84,0,0,1,9.63,1.91,12.12,12.12,0,0,1,5.45,5.84q1.81,3.94,1.81,11.87V68.44q0,4.49.06,6.33a22.11,22.11,0,0,0,.37,3.42,6.91,6.91,0,0,0,.91,2.51,5,5,0,0,0,1.78,1.61,18.2,18.2,0,0,0,3.85,1.39v3h-16.6Zm-1-19q-12.3.12-18.41,3.27T83.6,71.83A9.38,9.38,0,0,0,85,77.28,7.23,7.23,0,0,0,88.5,80a15.14,15.14,0,0,0,5,.75,14.36,14.36,0,0,0,7.48-2,15,15,0,0,0,5.24-5.09,11.74,11.74,0,0,0,1.88-6.12Z"/><path class="cls-1" d="M148,52.93H150a10.65,10.65,0,0,0,3.27-.42,13.84,13.84,0,0,0,3.33-1.85,59.23,59.23,0,0,0,5.15-4.39,40.79,40.79,0,0,0,4.21-4.42,12.27,12.27,0,0,0,2-3.33,7.18,7.18,0,0,0,.48-2.54,3.66,3.66,0,0,0-1.12-2.85,6.76,6.76,0,0,0-3.66-1.39v-3h26.1v3a18.06,18.06,0,0,0-5.93,2.48,40.2,40.2,0,0,0-6.48,5.09l-13.93,13.2L180.8,75.28a32.17,32.17,0,0,0,5.48,5.91,12.93,12.93,0,0,0,5.36,2.51v3H168.38v-3a5.27,5.27,0,0,0,2.34-.7,1.92,1.92,0,0,0,.75-1.72,5.06,5.06,0,0,0-.33-1.79,13.14,13.14,0,0,0-1.36-2.39q-1-1.51-3.76-5.27l-7.21-9.69a35.56,35.56,0,0,0-2.93-3.57A5.41,5.41,0,0,0,154,57.36a7.39,7.39,0,0,0-2.6-.37H148V71.53a35.58,35.58,0,0,0,.49,7.24,5.26,5.26,0,0,0,1.85,3.08,12.29,12.29,0,0,0,4.45,1.85v3h-24v-3A13.71,13.71,0,0,0,135,82.07a5,5,0,0,0,1.7-2,11.27,11.27,0,0,0,.72-3.21,50.37,50.37,0,0,0,.22-5.3V20.83c0-3.87,0-6.58-.09-8.11A20.86,20.86,0,0,0,137,8.81,6.74,6.74,0,0,0,136,6.3a4.77,4.77,0,0,0-1.88-1.45,19,19,0,0,0-4.27-1.09V.61L144.4,0H148Z"/><path class="cls-1" d="M228.82,78l-.91-.24A37.33,37.33,0,0,1,218,85.4a22.34,22.34,0,0,1-9.84,2.24,17.65,17.65,0,0,1-8.11-1.79,12.68,12.68,0,0,1-5.39-5,14.53,14.53,0,0,1-1.88-7.48q0-8.84,8.75-13.65t26.25-5.61V50.15a32.41,32.41,0,0,0-1.21-9.93,9.71,9.71,0,0,0-3.81-5.33,12.64,12.64,0,0,0-7-1.7,11.25,11.25,0,0,0-7.6,2.48,15.21,15.21,0,0,0-4.33,7.45h-7.93V35.25a85.47,85.47,0,0,1,9.69-4.45,55.14,55.14,0,0,1,7.75-2.24,37.68,37.68,0,0,1,7.87-.82,20.78,20.78,0,0,1,9.63,1.91,12.13,12.13,0,0,1,5.46,5.84q1.81,3.94,1.81,11.87V68.44q0,4.49.06,6.33a21,21,0,0,0,.37,3.42,7.11,7.11,0,0,0,.9,2.51,5,5,0,0,0,1.79,1.61,18.2,18.2,0,0,0,3.85,1.39v3h-16.6Zm-1-19q-12.28.12-18.41,3.27t-6.11,9.51a9.38,9.38,0,0,0,1.39,5.45A7.23,7.23,0,0,0,208.16,80a15.14,15.14,0,0,0,5,.75,14.36,14.36,0,0,0,7.48-2,15,15,0,0,0,5.24-5.09,11.73,11.73,0,0,0,1.87-6.12Z"/><path class="cls-1" d="M251.4,83.7a20.21,20.21,0,0,0,3.36-1.27,5.07,5.07,0,0,0,1.69-1.51,7.68,7.68,0,0,0,1.09-3,34.62,34.62,0,0,0,.4-6.24V45.3q0-3.87-.12-6.24a9.69,9.69,0,0,0-.85-3.78,4.6,4.6,0,0,0-2.21-2.12A17.53,17.53,0,0,0,250.55,32V28.77l14.11-.55h3.69V71.53a36.35,36.35,0,0,0,.49,7.24,5.26,5.26,0,0,0,1.85,3.08,12.37,12.37,0,0,0,4.45,1.85v3H251.4Z"/><path class="cls-1" d="M265.6,17.53c-1.09-1.1-1.87-3.62-3.79-3.7h-.09a3.57,3.57,0,0,0-.56,0h0c-1.88.12-2.66,2.61-3.74,3.7-1.38,1.38-3.27.32-3.46,3.61-.14,2.52,1.09,3.71,3,3.85s3.41-1,4.31-1.1a1.19,1.19,0,0,1,.42,0c.9.05,2.36,1.24,4.31,1.1s3.17-1.33,3-3.85C268.87,17.85,267,18.91,265.6,17.53Z"/><path class="cls-1" d="M258.8,3.84c1.9.26,1.61,2.71,1.77,3.87s.34,2.58-.42,3.07-2-.13-2.67-.8a3.34,3.34,0,0,1-1.41-3.66C256.42,4.92,257.74,3.7,258.8,3.84Z"/><path class="cls-1" d="M258.24,0s-1.27,1.76-.87,2.71c.28.67,1.35.67,1.42-.09A6.16,6.16,0,0,0,258.24,0Z"/><path class="cls-1" d="M250.16,7.4s-.74,2-.1,2.84c.45.57,1.48.28,1.35-.47A6.08,6.08,0,0,0,250.16,7.4Z"/><path class="cls-1" d="M251.66,10.86a3.12,3.12,0,0,1,3.19,1.6c.55.94,1.1,2.48-.17,3.57a2.89,2.89,0,0,1-3.36.38C249.61,15.24,249.81,11.45,251.66,10.86Z"/><path class="cls-1" d="M264.35,3.84c-1.9.26-1.61,2.71-1.76,3.87s-.34,2.58.42,3.07,2-.13,2.66-.8a3.34,3.34,0,0,0,1.41-3.66C266.73,4.92,265.41,3.7,264.35,3.84Z"/><path class="cls-1" d="M264.92,0s1.27,1.76.87,2.71c-.29.67-1.35.67-1.43-.09A6.16,6.16,0,0,1,264.92,0Z"/><path class="cls-1" d="M272.49,7.4s.75,2,.11,2.84c-.45.57-1.48.28-1.35-.47A6.2,6.2,0,0,1,272.49,7.4Z"/><path class="cls-1" d="M271,10.86a3.12,3.12,0,0,0-3.19,1.6c-.55.94-1.1,2.48.17,3.57a2.89,2.89,0,0,0,3.36.38C273.05,15.24,272.85,11.45,271,10.86Z"/></g></g></svg>